<svg width="543.1999267578125px" height="122px" xmlns="http://www.w3.org/2000/svg" viewBox="-21.59996337890624 14 543.1999267578125 122" style="background:#f2eddb" preserveAspectRatio="xMidYMid"><defs><filter id="editing-vintage" x="-100%" y="-100%" width="300%" height="300%"><feConvolveMatrix in="SourceGraphic" result="extrude" order="9,9" divisor="1" kernelMatrix="1,0,0,0,0,0,0,0,0,0,1,0,0,0,0,0,0,0,0,0,1,0,0,0,0,0,0,0,0,0,1,0,0,0,0,0,0,0,0,0,1,0,0,0,0,0,0,0,0,0,1,0,0,0,0,0,0,0,0,0,1,0,0,0,0,0,0,0,0,0,1,0,0,0,0,0,0,0,0,0,1"> </feConvolveMatrix><feFlood flood-color="#900" result="flood-extrude"></feFlood><feComposite operator="in" in="flood-extrude" in2="extrude" result="extrude-color"></feComposite><feOffset dx="5" dy="5" in="extrude-color" result="extrude-offset"></feOffset><feColorMatrix in="SourceGraphic" result="stroke" type="matrix" values="0 0 0 0 0 0 0 0 0 0 0 0 0 0 0 0 1 0 0 0 "></feColorMatrix><feColorMatrix in="SourceGraphic" result="fill" type="matrix" values="0 0 0 0 0 0 0 0 0 0 0 0 0 0 0 1 0 0 1 0 "></feColorMatrix><feConvolveMatrix in="stroke" result="inner-shadow" order="5,5" divisor="1" kernelMatrix="1 0 0 0 0 0 1 0 0 0 0 0 1 0 0 0 0 0 1 0 0 0 0 0 1 "></feConvolveMatrix><feOffset dx="1" dy="1" in="inner-shadow" result="offset"></feOffset><feComposite operator="in" in="offset" in2="SourceAlpha" result="comp"></feComposite><feFlood flood-color="#000" result="flood3"></feFlood><feComposite operator="in" in="flood3" in2="comp" result="comp2"></feComposite><feColorMatrix in="comp2" result="comp3" type="matrix" values="1 0 0 0 0 0 1 0 0 0 0 0 1 0 0 0 0 0 0.5 0 "></feColorMatrix><feFlood flood-color="#f00" result="flood1"></feFlood><feComposite operator="in" in="flood1" in2="fill" result="fill2"></feComposite><feFlood flood-color="#fff" result="flood2"></feFlood><feComposite operator="in" in="flood2" in2="stroke" result="stroke2"></feComposite><feMerge result="obj"><feMergeNode in="extrude-offset"></feMergeNode><feMergeNode in="fill2"></feMergeNode><feMergeNode in="comp3"></feMergeNode></feMerge><feConvolveMatrix in="SourceAlpha" result="shadow" order="9,9" divisor="1" kernelMatrix="1,0,0,0,0,0,0,0,0,0,1,0,0,0,0,0,0,0,0,0,1,0,0,0,0,0,0,0,0,0,1,0,0,0,0,0,0,0,0,0,1,0,0,0,0,0,0,0,0,0,1,0,0,0,0,0,0,0,0,0,1,0,0,0,0,0,0,0,0,0,1,0,0,0,0,0,0,0,0,0,1"></feConvolveMatrix><feOffset dx="15" dy="15" in="shadow" result="shadow-offset"></feOffset><feFlood flood-color="#444" result="flood-shadow"></feFlood><feComposite operator="in" in="flood-shadow" in2="shadow-offset" result="shadow-color"></feComposite><feMerge><feMergeNode in="shadow-color"></feMergeNode><feMergeNode in="obj"></feMergeNode></feMerge></filter></defs><g transform="translate(-9,-9)"><g filter="url(#editing-vintage)"><g transform="translate(58.739972203969955, 99)"><path d="M30.21-33.92L30.21-33.92L30.21-33.92Q25.02-33.92 21.25-35.65L21.25-35.65L19.20-25.28L31.55-25.28L31.55-25.28Q31.55-21.89 29.86-19.74L29.86-19.74L29.86-19.74Q28.16-17.60 25.09-17.60L25.09-17.60L25.09-17.60Q21.76-17.60 18.69-18.82L18.69-18.82L18.69-18.82Q18.05-19.07 17.98-19.14L17.98-19.14L14.34 0L0.38 0L8.51-42.24L37.06-42.24L37.06-42.24Q37.06-38.34 35.23-36.13L35.23-36.13L35.23-36.13Q33.41-33.92 30.21-33.92ZM48.96 1.28L48.96 1.28L48.96 1.28Q34.88 1.28 34.88-11.97L34.88-11.97L34.88-11.97Q34.88-21.38 40.06-27.46L40.06-27.46L40.06-27.46Q45.57-33.92 55.10-33.92L55.10-33.92L55.10-33.92Q62.02-33.92 65.54-30.72L65.54-30.72L65.54-30.72Q69.06-27.52 69.06-20.80L69.06-20.80L69.06-20.80Q69.06-10.56 63.55-4.61L63.55-4.61L63.55-4.61Q58.18 1.28 48.96 1.28ZM50.62-26.56L50.62-26.56L50.62-26.56Q49.86-24.83 49.25-22.24L49.25-22.24L49.25-22.24Q48.64-19.65 47.87-15.55L47.87-15.55L47.87-15.55Q47.10-11.46 47.10-6.40L47.10-6.40L47.10-6.40Q47.10-4.74 47.65-3.65L47.65-3.65L47.65-3.65Q48.19-2.56 49.66-2.56L49.66-2.56L49.66-2.56Q51.14-2.56 52.06-3.26L52.06-3.26L52.06-3.26Q52.99-3.97 53.70-5.63L53.70-5.63L53.70-5.63Q54.98-8.58 56-14.05L56-14.05L56-14.05Q57.02-19.52 57.12-21.89L57.12-21.89L57.12-21.89Q57.22-24.26 57.22-26.02L57.22-26.02L57.22-26.02Q57.22-27.78 56.70-28.93L56.70-28.93L56.70-28.93Q56.19-30.08 54.75-30.08L54.75-30.08L54.75-30.08Q53.31-30.08 52.35-29.18L52.35-29.18L52.35-29.18Q51.39-28.29 50.62-26.56ZM86.78 1.28L86.78 1.28L86.78 1.28Q72.70 1.28 72.70-11.97L72.70-11.97L72.70-11.97Q72.70-21.38 77.89-27.46L77.89-27.46L77.89-27.46Q83.39-33.92 92.93-33.92L92.93-33.92L92.93-33.92Q99.84-33.92 103.36-30.72L103.36-30.72L103.36-30.72Q106.88-27.52 106.88-20.80L106.88-20.80L106.88-20.80Q106.88-10.56 101.38-4.61L101.38-4.61L101.38-4.61Q96 1.28 86.78 1.28ZM88.45-26.56L88.45-26.56L88.45-26.56Q87.68-24.83 87.07-22.24L87.07-22.24L87.07-22.24Q86.46-19.65 85.70-15.55L85.70-15.55L85.70-15.55Q84.93-11.46 84.93-6.40L84.93-6.40L84.93-6.40Q84.93-4.74 85.47-3.65L85.47-3.65L85.47-3.65Q86.02-2.56 87.49-2.56L87.49-2.56L87.49-2.56Q88.96-2.56 89.89-3.26L89.89-3.26L89.89-3.26Q90.82-3.97 91.52-5.63L91.52-5.63L91.52-5.63Q92.80-8.58 93.82-14.05L93.82-14.05L93.82-14.05Q94.85-19.52 94.94-21.89L94.94-21.89L94.94-21.89Q95.04-24.26 95.04-26.02L95.04-26.02L95.04-26.02Q95.04-27.78 94.53-28.93L94.53-28.93L94.53-28.93Q94.02-30.08 92.58-30.08L92.58-30.08L92.58-30.08Q91.14-30.08 90.18-29.18L90.18-29.18L90.18-29.18Q89.22-28.29 88.45-26.56ZM130.82-33.92L130.82-33.92L130.82-33.92Q133.12-33.92 134.91-33.41L134.91-33.41L134.91-33.41Q134.98-33.66 135.10-34.37L135.10-34.37L135.42-36.35L135.42-36.35Q135.68-37.63 136.06-39.74L136.06-39.74L137.09-44.80L149.82-46.08L142.72-8.96L142.72-8.96Q142.66-8.58 142.66-7.94L142.66-7.94L142.66-6.91L142.66-6.91Q142.66-5.50 143.36-4.45L143.36-4.45L143.36-4.45Q144.06-3.39 145.22-3.39L145.22-3.39L145.22-3.39Q143.94-0.38 140.03 0.90L140.03 0.90L140.03 0.90Q138.69 1.28 136.80 1.28L136.80 1.28L136.80 1.28Q134.91 1.28 133.18 0.29L133.18 0.29L133.18 0.29Q131.46-0.70 130.94-2.37L130.94-2.37L130.94-2.37Q129.92-0.70 127.87 0.29L127.87 0.29L127.87 0.29Q125.82 1.28 122.85 1.28L122.85 1.28L122.85 1.28Q119.87 1.28 117.41 0.51L117.41 0.51L117.41 0.51Q114.94-0.26 113.41-1.92L113.41-1.92L113.41-1.92Q110.59-5.18 110.59-12.61L110.59-12.61L110.59-12.61Q110.59-22.21 116.22-28.03L116.22-28.03L116.22-28.03Q121.86-33.92 130.82-33.92ZM130.37-30.08L130.37-30.08L130.37-30.08Q128-30.08 126.72-27.52L126.72-27.52L126.72-27.52Q125.44-24.96 124.13-18.62L124.13-18.62L124.13-18.62Q122.82-12.29 122.82-6.59L122.82-6.59L122.82-6.59Q122.82-2.69 125.12-2.69L125.12-2.69L125.12-2.69Q127.17-2.69 128.61-4.74L128.61-4.74L128.61-4.74Q130.05-6.78 130.62-10.18L130.62-10.18L134.08-28.93L134.08-28.93Q132.74-30.08 130.37-30.08ZM165.44-39.68L165.44-39.68L165.44-39.68Q166.34-41.47 168.29-42.46L168.29-42.46L168.29-42.46Q170.24-43.46 172.93-43.46L172.93-43.46L172.93-43.46Q177.15-43.46 179.68-40.42L179.68-40.42L179.68-40.42Q182.21-37.38 182.21-30.72L182.21-30.72L182.21-7.87L196.86-42.18L204.42-42.18L206.14-9.79L205.95-7.94L221.18-42.18L229.95-42.18L209.47 0L195.84 0L194.56-19.46L186.11 0L170.69 0L168.77-30.72L168.77-30.72Q168.58-34.18 167.65-36.45L167.65-36.45L167.65-36.45Q166.72-38.72 165.44-39.68ZM242.56-3.52L242.56-3.52L242.56-3.52Q240.58 1.28 234.24 1.28L234.24 1.28L234.24 1.28Q230.98 1.28 228.93-0.96L228.93-0.96L228.93-0.96Q227.20-2.94 227.20-4.93L227.20-4.93L227.20-4.93Q227.20-10.11 229.57-20.22L229.57-20.22L231.94-32.64L244.93-33.92L241.02-13.70L241.02-13.70Q239.94-8.96 239.94-7.30L239.94-7.30L239.94-7.30Q239.94-3.65 242.56-3.52ZM233.09-41.54L233.09-41.54L233.09-41.54Q233.09-44.03 235.17-45.38L235.17-45.38L235.17-45.38Q237.25-46.72 240.26-46.72L240.26-46.72L240.26-46.72Q243.26-46.72 245.09-45.38L245.09-45.38L245.09-45.38Q246.91-44.03 246.91-41.54L246.91-41.54L246.91-41.54Q246.91-39.04 244.90-37.76L244.90-37.76L244.90-37.76Q242.88-36.48 239.87-36.48L239.87-36.48L239.87-36.48Q236.86-36.48 234.98-37.76L234.98-37.76L234.98-37.76Q233.09-39.04 233.09-41.54ZM267.14-22.46L267.14-22.46L267.14-22.46Q268.03-24.83 268.03-26.88L268.03-26.88L268.03-26.88Q268.03-30.66 264.96-30.66L264.96-30.66L264.96-30.66Q263.36-30.66 262.05-29.22L262.05-29.22L262.05-29.22Q260.74-27.78 260.74-25.98L260.74-25.98L260.74-25.98Q260.74-24.70 261.76-23.68L261.76-23.68L261.76-23.68Q263.23-22.27 267.01-19.97L267.01-19.97L267.01-19.97Q270.78-17.66 272.22-15.78L272.22-15.78L272.22-15.78Q273.66-13.89 273.66-11.30L273.66-11.30L273.66-11.30Q273.66-8.70 272.42-6.34L272.42-6.34L272.42-6.34Q271.17-3.97 268.93-2.30L268.93-2.30L268.93-2.30Q264.13 1.28 256.45 1.28L256.45 1.28L256.45 1.28Q252.29 1.28 249.09-0.90L249.09-0.90L249.09-0.90Q245.89-3.01 245.89-5.50L245.89-5.50L245.89-5.50Q245.89-8 247.71-9.47L247.71-9.47L247.71-9.47Q249.54-10.94 252.22-10.94L252.22-10.94L252.22-10.94Q254.91-10.94 256.58-9.92L256.58-9.92L256.58-9.92Q255.74-7.81 255.74-6.40L255.74-6.40L255.74-6.40Q255.74-2.18 259.33-2.18L259.33-2.18L259.33-2.18Q260.86-2.18 261.89-3.14L261.89-3.14L261.89-3.14Q262.91-4.10 262.91-5.76L262.91-5.76L262.91-5.76Q262.91-9.02 257.41-12.48L257.41-12.48L257.41-12.48Q252.93-15.42 251.90-16.58L251.90-16.58L251.90-16.58Q250.18-18.62 250.18-21.18L250.18-21.18L250.18-21.18Q250.18-23.74 251.39-26.18L251.39-26.18L251.39-26.18Q252.61-28.61 254.85-30.34L254.85-30.34L254.85-30.34Q259.52-33.92 267.65-33.92L267.65-33.92L267.65-33.92Q271.81-33.92 274.27-32.26L274.27-32.26L274.27-32.26Q276.74-30.59 276.74-27.78L276.74-27.78L276.74-27.78Q276.74-24.96 275.04-23.36L275.04-23.36L275.04-23.36Q273.34-21.76 270.27-21.76L270.27-21.76L270.27-21.76Q268.16-21.76 267.14-22.46ZM311.30-7.10L311.30-7.10L311.30-7.10Q311.30-4.29 314.18-3.46L314.18-3.46L314.18-3.46Q313.47-1.09 310.72 0.19L310.72 0.19L310.72 0.19Q308.42 1.28 305.89 1.28L305.89 1.28L305.89 1.28Q303.36 1.28 302.05 0.61L302.05 0.61L302.05 0.61Q300.74-0.06 300.03-1.15L300.03-1.15L300.03-1.15Q298.88-2.82 298.88-5.95L298.88-5.95L298.88-5.95Q298.88-7.81 299.90-12.93L299.90-12.93L300.80-17.79L300.80-17.79Q301.89-23.36 301.89-25.41L301.89-25.41L301.89-25.41Q301.89-28.99 299.90-28.99L299.90-28.99L299.90-28.99Q297.41-28.99 295.81-25.34L295.81-25.34L295.81-25.34Q295.17-23.94 294.72-21.82L294.72-21.82L290.37 0L277.50 1.28L286.53-44.80L299.39-46.08L298.88-43.52L298.88-43.52Q297.09-33.66 295.55-30.34L295.55-30.34L295.55-30.34Q299.14-33.92 305.73-33.92L305.73-33.92L305.73-33.92Q312.70-33.92 313.98-29.31L313.98-29.31L313.98-29.31Q314.43-27.84 314.43-26.56L314.43-26.56L314.43-26.56Q314.43-25.28 314.34-24.29L314.34-24.29L314.34-24.29Q314.24-23.30 313.92-21.50L313.92-21.50L313.09-16.90L311.62-9.66L311.62-9.66Q311.30-8.19 311.30-7.10ZM345.28-10.82L345.28-10.82L345.28-10.82Q346.88-9.73 346.88-7.33L346.88-7.33L346.88-7.33Q346.88-4.93 345.66-3.39L345.66-3.39L345.66-3.39Q344.45-1.86 342.46-0.83L342.46-0.83L342.46-0.83Q338.37 1.28 333.95 1.28L333.95 1.28L333.95 1.28Q329.54 1.28 326.94 0.32L326.94 0.32L326.94 0.32Q324.35-0.64 322.62-2.43L322.62-2.43L322.62-2.43Q319.23-5.82 319.23-12.03L319.23-12.03L319.23-12.03Q319.23-21.70 324.48-27.58L324.48-27.58L324.48-27.58Q330.11-33.92 339.90-33.92L339.90-33.92L339.90-33.92Q345.98-33.92 348.99-31.36L348.99-31.36L348.99-31.36Q351.23-29.44 351.23-26.30L351.23-26.30L351.23-26.30Q351.23-15.04 331.78-15.04L331.78-15.04L331.78-15.04Q331.52-13.38 331.52-11.97L331.52-11.97L331.52-11.97Q331.52-9.02 332.83-7.90L332.83-7.90L332.83-7.90Q334.14-6.78 336.58-6.78L336.58-6.78L336.58-6.78Q339.01-6.78 341.60-7.90L341.60-7.90L341.60-7.90Q344.19-9.02 345.28-10.82ZM332.22-17.79L332.22-17.79L332.22-17.79Q336.77-17.79 339.39-20.61L339.39-20.61L339.39-20.61Q342.02-23.30 342.02-27.58L342.02-27.58L342.02-27.58Q342.02-29.06 341.47-29.86L341.47-29.86L341.47-29.86Q340.93-30.66 339.84-30.66L339.84-30.66L339.84-30.66Q338.75-30.66 337.82-30.24L337.82-30.24L337.82-30.24Q336.90-29.82 335.94-28.42L335.94-28.42L335.94-28.42Q333.57-25.22 332.22-17.79ZM372.54-22.46L372.54-22.46L372.54-22.46Q373.44-24.83 373.44-26.88L373.44-26.88L373.44-26.88Q373.44-30.66 370.37-30.66L370.37-30.66L370.37-30.66Q368.77-30.66 367.46-29.22L367.46-29.22L367.46-29.22Q366.14-27.78 366.14-25.98L366.14-25.98L366.14-25.98Q366.14-24.70 367.17-23.68L367.17-23.68L367.17-23.68Q368.64-22.27 372.42-19.97L372.42-19.97L372.42-19.97Q376.19-17.66 377.63-15.78L377.63-15.78L377.63-15.78Q379.07-13.89 379.07-11.30L379.07-11.30L379.07-11.30Q379.07-8.70 377.82-6.34L377.82-6.34L377.82-6.34Q376.58-3.97 374.34-2.30L374.34-2.30L374.34-2.30Q369.54 1.28 361.86 1.28L361.86 1.28L361.86 1.28Q357.70 1.28 354.50-0.90L354.50-0.90L354.50-0.90Q351.30-3.01 351.30-5.50L351.30-5.50L351.30-5.50Q351.30-8 353.12-9.47L353.12-9.47L353.12-9.47Q354.94-10.94 357.63-10.94L357.63-10.94L357.63-10.94Q360.32-10.94 361.98-9.92L361.98-9.92L361.98-9.92Q361.15-7.81 361.15-6.40L361.15-6.40L361.15-6.40Q361.15-2.18 364.74-2.18L364.74-2.18L364.74-2.18Q366.27-2.18 367.30-3.14L367.30-3.14L367.30-3.14Q368.32-4.10 368.32-5.76L368.32-5.76L368.32-5.76Q368.32-9.02 362.82-12.48L362.82-12.48L362.82-12.48Q358.34-15.42 357.31-16.58L357.31-16.58L357.31-16.58Q355.58-18.62 355.58-21.18L355.58-21.18L355.58-21.18Q355.58-23.74 356.80-26.18L356.80-26.18L356.80-26.18Q358.02-28.61 360.26-30.34L360.26-30.34L360.26-30.34Q364.93-33.92 373.06-33.92L373.06-33.92L373.06-33.92Q377.22-33.92 379.68-32.26L379.68-32.26L379.68-32.26Q382.14-30.59 382.14-27.78L382.14-27.78L382.14-27.78Q382.14-24.96 380.45-23.36L380.45-23.36L380.45-23.36Q378.75-21.76 375.68-21.76L375.68-21.76L375.68-21.76Q373.57-21.76 372.54-22.46Z" fill="#f00" stroke="#0f0" stroke-width="1.8"></path></g></g><g><g transform="translate(58.74001416563988, 99)"><path d="M30.21-33.92L30.21-33.92L30.21-33.92Q25.02-33.92 21.25-35.65L21.25-35.65L19.20-25.28L31.55-25.28L31.55-25.28Q31.55-21.89 29.86-19.74L29.86-19.74L29.86-19.74Q28.16-17.60 25.09-17.60L25.09-17.60L25.09-17.60Q21.76-17.60 18.69-18.82L18.69-18.82L18.69-18.82Q18.05-19.07 17.98-19.14L17.98-19.14L14.34 0L0.38 0L8.51-42.24L37.06-42.24L37.06-42.24Q37.06-38.34 35.23-36.13L35.23-36.13L35.23-36.13Q33.41-33.92 30.21-33.92ZM48.96 1.28L48.96 1.28L48.96 1.28Q34.88 1.28 34.88-11.97L34.88-11.97L34.88-11.97Q34.88-21.38 40.06-27.46L40.06-27.46L40.06-27.46Q45.57-33.92 55.10-33.92L55.10-33.92L55.10-33.92Q62.02-33.92 65.54-30.72L65.54-30.72L65.54-30.72Q69.06-27.52 69.06-20.80L69.06-20.80L69.06-20.80Q69.06-10.56 63.55-4.61L63.55-4.61L63.55-4.61Q58.18 1.28 48.96 1.28ZM50.62-26.56L50.62-26.56L50.62-26.56Q49.86-24.83 49.25-22.24L49.25-22.24L49.25-22.24Q48.64-19.65 47.87-15.55L47.87-15.55L47.87-15.55Q47.10-11.46 47.10-6.40L47.10-6.40L47.10-6.40Q47.10-4.74 47.65-3.65L47.65-3.65L47.65-3.65Q48.19-2.56 49.66-2.56L49.66-2.56L49.66-2.56Q51.14-2.56 52.06-3.26L52.06-3.26L52.06-3.26Q52.99-3.97 53.70-5.63L53.70-5.63L53.70-5.63Q54.98-8.58 56-14.05L56-14.05L56-14.05Q57.02-19.52 57.12-21.89L57.12-21.89L57.12-21.89Q57.22-24.26 57.22-26.02L57.22-26.02L57.22-26.02Q57.22-27.78 56.70-28.93L56.70-28.93L56.70-28.93Q56.19-30.08 54.75-30.08L54.75-30.08L54.75-30.08Q53.31-30.08 52.35-29.18L52.35-29.18L52.35-29.18Q51.39-28.29 50.62-26.56ZM86.78 1.28L86.78 1.28L86.78 1.28Q72.70 1.28 72.70-11.97L72.70-11.97L72.70-11.97Q72.70-21.38 77.89-27.46L77.89-27.46L77.89-27.46Q83.39-33.92 92.93-33.92L92.93-33.92L92.93-33.92Q99.84-33.92 103.36-30.72L103.36-30.72L103.36-30.72Q106.88-27.52 106.88-20.80L106.88-20.80L106.88-20.80Q106.88-10.56 101.38-4.61L101.38-4.61L101.38-4.61Q96 1.28 86.78 1.28ZM88.45-26.56L88.45-26.56L88.45-26.56Q87.68-24.83 87.07-22.24L87.07-22.24L87.07-22.24Q86.46-19.65 85.70-15.55L85.70-15.55L85.70-15.55Q84.93-11.46 84.93-6.40L84.93-6.40L84.93-6.40Q84.93-4.74 85.47-3.65L85.47-3.65L85.47-3.65Q86.02-2.56 87.49-2.56L87.49-2.56L87.49-2.56Q88.96-2.56 89.89-3.26L89.89-3.26L89.89-3.26Q90.82-3.97 91.52-5.63L91.52-5.63L91.52-5.63Q92.80-8.58 93.82-14.05L93.82-14.05L93.82-14.05Q94.85-19.52 94.94-21.89L94.94-21.89L94.94-21.89Q95.04-24.26 95.04-26.02L95.04-26.02L95.04-26.02Q95.04-27.78 94.53-28.93L94.53-28.93L94.53-28.93Q94.02-30.08 92.58-30.08L92.58-30.08L92.58-30.08Q91.14-30.08 90.18-29.18L90.18-29.18L90.18-29.18Q89.22-28.29 88.45-26.56ZM130.82-33.92L130.82-33.92L130.82-33.92Q133.12-33.92 134.91-33.41L134.91-33.41L134.91-33.41Q134.98-33.66 135.10-34.37L135.10-34.37L135.42-36.35L135.42-36.35Q135.68-37.63 136.06-39.74L136.06-39.74L137.09-44.80L149.82-46.08L142.72-8.96L142.72-8.96Q142.66-8.58 142.66-7.94L142.66-7.94L142.66-6.91L142.66-6.91Q142.66-5.50 143.36-4.45L143.36-4.45L143.36-4.45Q144.06-3.39 145.22-3.39L145.22-3.39L145.22-3.39Q143.94-0.38 140.03 0.90L140.03 0.90L140.03 0.90Q138.69 1.28 136.80 1.28L136.80 1.28L136.80 1.28Q134.91 1.28 133.18 0.29L133.18 0.29L133.18 0.29Q131.46-0.70 130.94-2.37L130.94-2.37L130.94-2.37Q129.92-0.70 127.87 0.29L127.87 0.29L127.87 0.29Q125.82 1.28 122.85 1.28L122.85 1.28L122.85 1.28Q119.87 1.28 117.41 0.51L117.41 0.51L117.41 0.51Q114.94-0.26 113.41-1.92L113.41-1.92L113.41-1.92Q110.59-5.18 110.59-12.61L110.59-12.61L110.59-12.61Q110.59-22.21 116.22-28.03L116.22-28.03L116.22-28.03Q121.86-33.92 130.82-33.92ZM130.37-30.08L130.37-30.08L130.37-30.08Q128-30.08 126.72-27.52L126.72-27.52L126.72-27.52Q125.44-24.96 124.13-18.62L124.13-18.62L124.13-18.62Q122.82-12.29 122.82-6.59L122.82-6.59L122.82-6.59Q122.82-2.69 125.12-2.69L125.12-2.69L125.12-2.69Q127.17-2.69 128.61-4.74L128.61-4.74L128.61-4.74Q130.05-6.78 130.62-10.18L130.62-10.18L134.08-28.93L134.08-28.93Q132.74-30.08 130.37-30.08ZM165.44-39.68L165.44-39.68L165.44-39.68Q166.34-41.47 168.29-42.46L168.29-42.46L168.29-42.46Q170.24-43.46 172.93-43.46L172.93-43.46L172.93-43.46Q177.15-43.46 179.68-40.42L179.68-40.42L179.68-40.42Q182.21-37.38 182.21-30.72L182.21-30.72L182.21-7.87L196.86-42.18L204.42-42.18L206.14-9.79L205.95-7.94L221.18-42.18L229.95-42.18L209.47 0L195.84 0L194.56-19.46L186.11 0L170.69 0L168.77-30.72L168.77-30.72Q168.58-34.18 167.65-36.45L167.65-36.45L167.65-36.45Q166.72-38.72 165.44-39.68ZM242.56-3.52L242.56-3.52L242.56-3.52Q240.58 1.28 234.24 1.28L234.24 1.28L234.24 1.28Q230.98 1.28 228.93-0.96L228.93-0.96L228.93-0.96Q227.20-2.94 227.20-4.93L227.20-4.93L227.20-4.93Q227.20-10.11 229.57-20.22L229.57-20.22L231.94-32.64L244.93-33.92L241.02-13.70L241.02-13.70Q239.94-8.96 239.94-7.30L239.94-7.30L239.94-7.30Q239.94-3.65 242.56-3.52ZM233.09-41.54L233.09-41.54L233.09-41.54Q233.09-44.03 235.17-45.38L235.17-45.38L235.17-45.38Q237.25-46.72 240.26-46.72L240.26-46.72L240.26-46.72Q243.26-46.72 245.09-45.38L245.09-45.38L245.09-45.38Q246.91-44.03 246.91-41.54L246.91-41.54L246.91-41.54Q246.91-39.04 244.90-37.76L244.90-37.76L244.90-37.76Q242.88-36.48 239.87-36.48L239.87-36.48L239.87-36.48Q236.86-36.48 234.98-37.76L234.98-37.76L234.98-37.76Q233.09-39.04 233.09-41.54ZM267.14-22.46L267.14-22.46L267.14-22.46Q268.03-24.83 268.03-26.88L268.03-26.88L268.03-26.88Q268.03-30.66 264.96-30.66L264.96-30.66L264.96-30.66Q263.36-30.66 262.05-29.22L262.05-29.22L262.05-29.22Q260.74-27.78 260.74-25.98L260.74-25.98L260.74-25.98Q260.74-24.70 261.76-23.68L261.76-23.68L261.76-23.68Q263.23-22.27 267.01-19.97L267.01-19.97L267.01-19.97Q270.78-17.66 272.22-15.78L272.22-15.78L272.22-15.78Q273.66-13.89 273.66-11.30L273.66-11.30L273.66-11.30Q273.66-8.70 272.42-6.34L272.42-6.34L272.42-6.34Q271.17-3.97 268.93-2.30L268.93-2.30L268.93-2.30Q264.13 1.28 256.45 1.28L256.45 1.28L256.45 1.28Q252.29 1.28 249.09-0.90L249.09-0.90L249.09-0.90Q245.89-3.01 245.89-5.50L245.89-5.50L245.89-5.50Q245.89-8 247.71-9.47L247.71-9.47L247.71-9.47Q249.54-10.94 252.22-10.94L252.22-10.94L252.22-10.94Q254.91-10.94 256.58-9.92L256.58-9.92L256.58-9.92Q255.74-7.81 255.74-6.40L255.74-6.40L255.74-6.40Q255.74-2.18 259.33-2.18L259.33-2.18L259.33-2.18Q260.86-2.18 261.89-3.14L261.89-3.14L261.89-3.14Q262.91-4.10 262.91-5.76L262.91-5.76L262.91-5.76Q262.91-9.02 257.41-12.48L257.41-12.48L257.41-12.48Q252.93-15.42 251.90-16.58L251.90-16.58L251.90-16.58Q250.18-18.62 250.18-21.18L250.18-21.18L250.18-21.18Q250.18-23.74 251.39-26.18L251.39-26.18L251.39-26.18Q252.61-28.61 254.85-30.34L254.85-30.34L254.85-30.34Q259.52-33.92 267.65-33.92L267.65-33.92L267.65-33.92Q271.81-33.92 274.27-32.26L274.27-32.26L274.27-32.26Q276.74-30.59 276.74-27.78L276.74-27.78L276.74-27.78Q276.74-24.96 275.04-23.36L275.04-23.36L275.04-23.36Q273.34-21.76 270.27-21.76L270.27-21.76L270.27-21.76Q268.16-21.76 267.14-22.46ZM311.30-7.10L311.30-7.10L311.30-7.10Q311.30-4.29 314.18-3.46L314.18-3.46L314.18-3.46Q313.47-1.09 310.72 0.19L310.72 0.19L310.72 0.19Q308.42 1.28 305.89 1.28L305.89 1.28L305.89 1.28Q303.36 1.28 302.05 0.61L302.05 0.61L302.05 0.61Q300.74-0.06 300.03-1.15L300.03-1.15L300.03-1.15Q298.88-2.82 298.88-5.95L298.88-5.95L298.88-5.95Q298.88-7.81 299.90-12.93L299.90-12.93L300.80-17.79L300.80-17.79Q301.89-23.36 301.89-25.41L301.89-25.41L301.89-25.41Q301.89-28.99 299.90-28.99L299.90-28.99L299.90-28.99Q297.41-28.99 295.81-25.34L295.81-25.34L295.81-25.34Q295.17-23.94 294.72-21.82L294.72-21.82L290.37 0L277.50 1.28L286.53-44.80L299.39-46.08L298.88-43.52L298.88-43.52Q297.09-33.66 295.55-30.34L295.55-30.34L295.55-30.34Q299.14-33.92 305.73-33.92L305.73-33.92L305.73-33.92Q312.70-33.92 313.98-29.31L313.98-29.31L313.98-29.31Q314.43-27.84 314.43-26.56L314.43-26.56L314.43-26.56Q314.43-25.28 314.34-24.29L314.34-24.29L314.34-24.29Q314.24-23.30 313.92-21.50L313.92-21.50L313.09-16.90L311.62-9.66L311.62-9.66Q311.30-8.19 311.30-7.10ZM345.28-10.82L345.28-10.82L345.28-10.82Q346.88-9.73 346.88-7.33L346.88-7.33L346.88-7.33Q346.88-4.93 345.66-3.39L345.66-3.39L345.66-3.39Q344.45-1.86 342.46-0.83L342.46-0.83L342.46-0.83Q338.37 1.28 333.95 1.28L333.95 1.28L333.95 1.28Q329.54 1.28 326.94 0.32L326.94 0.32L326.94 0.32Q324.35-0.64 322.62-2.43L322.62-2.43L322.62-2.43Q319.23-5.82 319.23-12.03L319.23-12.03L319.23-12.03Q319.23-21.70 324.48-27.58L324.48-27.58L324.48-27.58Q330.11-33.92 339.90-33.92L339.90-33.92L339.90-33.92Q345.98-33.92 348.99-31.36L348.99-31.36L348.99-31.36Q351.23-29.44 351.23-26.30L351.23-26.30L351.23-26.30Q351.23-15.04 331.78-15.04L331.78-15.04L331.78-15.04Q331.52-13.38 331.52-11.97L331.52-11.97L331.52-11.97Q331.52-9.02 332.83-7.90L332.83-7.90L332.83-7.90Q334.14-6.78 336.58-6.78L336.58-6.78L336.58-6.78Q339.01-6.78 341.60-7.90L341.60-7.90L341.60-7.90Q344.19-9.02 345.28-10.82ZM332.22-17.79L332.22-17.79L332.22-17.79Q336.77-17.79 339.39-20.61L339.39-20.61L339.39-20.61Q342.02-23.30 342.02-27.58L342.02-27.58L342.02-27.58Q342.02-29.06 341.47-29.86L341.47-29.86L341.47-29.86Q340.93-30.66 339.84-30.66L339.84-30.66L339.84-30.66Q338.75-30.66 337.82-30.24L337.82-30.24L337.82-30.24Q336.90-29.82 335.94-28.42L335.94-28.42L335.94-28.42Q333.57-25.22 332.22-17.79ZM372.54-22.46L372.54-22.46L372.54-22.46Q373.44-24.83 373.44-26.88L373.44-26.88L373.44-26.88Q373.44-30.66 370.37-30.66L370.37-30.66L370.37-30.66Q368.77-30.66 367.46-29.22L367.46-29.22L367.46-29.22Q366.14-27.78 366.14-25.98L366.14-25.98L366.14-25.98Q366.14-24.70 367.17-23.68L367.17-23.68L367.17-23.68Q368.64-22.27 372.42-19.97L372.42-19.97L372.42-19.97Q376.19-17.66 377.63-15.78L377.63-15.78L377.63-15.78Q379.07-13.89 379.07-11.30L379.07-11.30L379.07-11.30Q379.07-8.70 377.82-6.34L377.82-6.34L377.82-6.34Q376.58-3.97 374.34-2.30L374.34-2.30L374.34-2.30Q369.54 1.28 361.86 1.28L361.86 1.28L361.86 1.28Q357.70 1.28 354.50-0.90L354.50-0.90L354.50-0.90Q351.30-3.01 351.30-5.50L351.30-5.50L351.30-5.50Q351.30-8 353.12-9.47L353.12-9.47L353.12-9.47Q354.94-10.94 357.63-10.94L357.63-10.94L357.63-10.94Q360.32-10.94 361.98-9.92L361.98-9.92L361.98-9.92Q361.15-7.81 361.15-6.40L361.15-6.40L361.15-6.40Q361.15-2.18 364.74-2.18L364.74-2.18L364.74-2.18Q366.27-2.18 367.30-3.14L367.30-3.14L367.30-3.14Q368.32-4.10 368.32-5.76L368.32-5.76L368.32-5.76Q368.32-9.02 362.82-12.48L362.82-12.48L362.82-12.48Q358.34-15.42 357.31-16.58L357.31-16.58L357.31-16.58Q355.58-18.62 355.58-21.18L355.58-21.18L355.58-21.18Q355.58-23.74 356.80-26.18L356.80-26.18L356.80-26.18Q358.02-28.61 360.26-30.34L360.26-30.34L360.26-30.34Q364.93-33.92 373.06-33.92L373.06-33.92L373.06-33.92Q377.22-33.92 379.68-32.26L379.68-32.26L379.68-32.26Q382.14-30.59 382.14-27.78L382.14-27.78L382.14-27.78Q382.14-24.96 380.45-23.36L380.45-23.36L380.45-23.36Q378.75-21.76 375.68-21.76L375.68-21.76L375.68-21.76Q373.57-21.76 372.54-22.46Z" fill="none" stroke="#fff" stroke-width="2.1"></path></g></g></g><style>text {
  font-size: 64px;
  font-family: Arial Black;
  dominant-baseline: central;
  text-anchor: middle;
}</style></svg>